<svg xmlns="http://www.w3.org/2000/svg" width="12" height="12" viewBox="0 0 12 12" fill="none">
  <g clip-path="url(#clip0_1390_5)">
    <path d="M11.4485 4.58588C11.3734 4.35346 11.1672 4.18838 10.9233 4.1664L7.61036 3.86558L6.30032 0.799297C6.20373 0.574578 5.98374 0.429115 5.73932 0.429115C5.49489 0.429115 5.2749 0.574578 5.17831 0.799822L3.86827 3.86558L0.554762 4.1664C0.311303 4.1889 0.105676 4.35346 0.030098 4.58588C-0.0454796 4.81831 0.024318 5.07324 0.208489 5.23394L2.71271 7.43016L1.97427 10.683C1.92024 10.9221 2.01307 11.1694 2.21151 11.3128C2.31818 11.3899 2.44298 11.4291 2.56882 11.4291C2.67733 11.4291 2.78496 11.3999 2.88155 11.3421L5.73932 9.63408L8.59603 11.3421C8.80507 11.4678 9.06858 11.4564 9.26659 11.3128C9.46513 11.1689 9.55787 10.9216 9.50383 10.683L8.7654 7.43016L11.2696 5.23438C11.4538 5.07324 11.5241 4.81875 11.4485 4.58588Z" fill="#FDC040"/>
  </g>
  <defs>
    <clipPath id="clip0_1390_5">
      <rect width="12" height="12" fill="white"/>
    </clipPath>
  </defs>
</svg>